<svg width="256" height="256" viewBox="0 0 256 256" fill="none" xmlns="http://www.w3.org/2000/svg">
  <path d="M256 128C256 217.333 256 256 128 256C0 256 0 217.333 0 128C0 38.6667 0 0 128 0C256 0 256 38.6667 256 128Z" fill="#132542"/>

  <path
    d="M52 184
       C56 146 66 72 96 72
       C116 72 124 106 128 132
       C132 106 140 72 160 72
       C190 72 198 118 204 152"
    stroke="#4FC3F7"
    stroke-width="28"
    stroke-linecap="round"
    stroke-linejoin="round"
  />

  <g>
    <path
      d="M186 162
         L232 198
         L212 204
         L224 232
         L208 238
         L196 210
         L180 226
         Z"
      fill="#EAF4FF"
    />
    <path
      d="M186 162
         L232 198
         L212 204
         L224 232
         L208 238
         L196 210
         L180 226
         Z"
      fill="none"
      stroke="#0B1733"
      stroke-width="6"
      stroke-linejoin="round"
      opacity="0.35"
    />
  </g>
</svg>
