<svg xmlns="http://www.w3.org/2000/svg" width="1200" height="320" viewBox="0 0 1200 320" fill="none">
  <defs>
    <linearGradient id="bg" x1="0" y1="0" x2="1200" y2="320" gradientUnits="userSpaceOnUse">
      <stop stop-color="#0b0c10"/>
      <stop offset="1" stop-color="#12141a"/>
    </linearGradient>
  </defs>
  <rect width="1200" height="320" rx="24" fill="url(#bg)"/>
  <rect x="40" y="90" width="1120" height="140" rx="28" fill="#161922" stroke="#2A2F3A" stroke-width="2"/>
  <circle cx="92" cy="160" r="12" fill="#9AA3B2"/>
  <rect x="130" y="132" width="52" height="56" rx="14" fill="#2563EB"/>
  <circle cx="156" cy="160" r="10" stroke="#fff" stroke-width="3"/>
  <rect x="220" y="124" width="2" height="72" fill="#313746"/>
  <rect x="252" y="142" width="28" height="28" rx="8" fill="#2F3647"/>
  <rect x="290" y="142" width="28" height="28" rx="8" fill="#2F3647"/>
  <rect x="328" y="142" width="28" height="28" rx="8" fill="#2F3647"/>
  <rect x="366" y="142" width="28" height="28" rx="8" fill="#2F3647"/>
  <rect x="404" y="142" width="28" height="28" rx="8" fill="#2F3647"/>
  <rect x="450" y="124" width="2" height="72" fill="#313746"/>
  <circle cx="492" cy="160" r="16" fill="#fff"/>
  <circle cx="536" cy="160" r="16" fill="#EF4444"/>
  <circle cx="580" cy="160" r="16" fill="#F97316"/>
  <circle cx="624" cy="160" r="16" fill="#EAB308"/>
  <circle cx="668" cy="160" r="16" fill="#22C55E"/>
  <circle cx="712" cy="160" r="16" fill="#3B82F6"/>
  <rect x="742" y="124" width="2" height="72" fill="#313746"/>
  <rect x="772" y="144" width="40" height="32" rx="8" fill="#3A4256"/>
  <circle cx="792" cy="160" r="7" fill="#E5E7EB"/>
  <circle cx="844" cy="160" r="10" fill="#E5E7EB"/>
  <rect x="882" y="124" width="2" height="72" fill="#313746"/>
  <rect x="914" y="142" width="28" height="28" rx="8" fill="#2F3647"/>
  <rect x="952" y="142" width="28" height="28" rx="8" fill="#2F3647"/>
  <rect x="990" y="142" width="28" height="28" rx="8" fill="#2F3647"/>
  <rect x="1028" y="142" width="28" height="28" rx="8" fill="#2F3647"/>
  <rect x="1066" y="142" width="28" height="28" rx="8" fill="#2F3647"/>
</svg>
